<svg width="1000" height="1000" viewBox="0 0 1000 1000" fill="none" xmlns="http://www.w3.org/2000/svg">
<path d="M933.78 507.74H739.58C736.738 507.735 733.949 506.982 731.49 505.558C729.031 504.134 726.99 502.089 725.572 499.627C724.154 497.165 723.408 494.374 723.409 491.533C723.41 488.691 724.159 485.9 725.58 483.44L744.68 450.39L774.48 398.75L780.48 388.4C781.906 385.951 783.949 383.918 786.406 382.504C788.862 381.09 791.645 380.344 794.48 380.34H878.92C881.756 380.331 884.545 381.072 887.004 382.487C889.462 383.902 891.503 385.942 892.92 388.4L947.82 483.4C949.252 485.864 950.008 488.663 950.013 491.514C950.018 494.364 949.27 497.165 947.846 499.634C946.422 502.104 944.371 504.153 941.901 505.576C939.432 507 936.63 507.746 933.78 507.74V507.74Z" stroke="#CCDDE2" stroke-width="5.42" stroke-miterlimit="10"/>
<path d="M844.13 776.77V761.29V507.75H823.08V740.86V782.89" stroke="#CCDDE2" stroke-width="5.42" stroke-miterlimit="10"/>
<path d="M799.83 507.74V605.13C799.831 606.513 799.56 607.882 799.032 609.159C798.504 610.437 797.729 611.598 796.752 612.575C795.775 613.553 794.615 614.329 793.338 614.858C792.061 615.388 790.692 615.66 789.31 615.66H662.08C660.697 615.66 659.328 615.388 658.051 614.858C656.774 614.329 655.614 613.553 654.637 612.575C653.66 611.598 652.886 610.437 652.357 609.159C651.829 607.882 651.558 606.513 651.56 605.13V375.46C651.56 372.669 652.668 369.992 654.64 368.018C656.613 366.043 659.289 364.933 662.08 364.93H789.31C792.101 364.933 794.776 366.043 796.749 368.018C798.722 369.992 799.83 372.669 799.83 375.46V380.34" stroke="#CCDDE2" stroke-width="5.42" stroke-miterlimit="10"/>
<path d="M542.41 779.55V711.78C542.41 694.997 535.743 678.902 523.876 667.034C512.009 655.167 495.913 648.5 479.13 648.5H453.49" stroke="#CCDDE2" stroke-width="5.42" stroke-miterlimit="10"/>
<path d="M681.51 581.84L684.07 539.84C684.93 525.68 685.15 508.14 696.47 497.73C715.31 480.41 723.09 521.17 725.24 531.98C728.382 548.347 730.148 564.948 730.52 581.61C730.95 574.99 731.52 568.22 734.31 562.19C737.22 555.86 743.45 550.09 750.87 550.83C764.42 552.18 770.58 570.43 770.3 581.83" stroke="#CCDDE2" stroke-width="5.42" stroke-miterlimit="10"/>
<path d="M714.67 441C712.812 444.205 709.977 446.732 706.581 448.212C703.184 449.691 699.403 450.046 695.791 449.224C692.178 448.403 688.923 446.447 686.501 443.644C684.078 440.841 682.616 437.337 682.326 433.643C682.037 429.95 682.936 426.261 684.893 423.115C686.849 419.968 689.76 417.53 693.201 416.156C696.641 414.782 700.431 414.544 704.016 415.476C707.602 416.409 710.795 418.464 713.13 421.34C712.135 422.703 711.515 424.303 711.33 425.98C711.33 425.98 711.33 425.98 711.27 425.98C709.053 426.226 707.004 427.279 705.513 428.939C704.023 430.599 703.196 432.75 703.19 434.98V435.05C703.237 436.659 703.915 438.184 705.076 439.297C706.238 440.41 707.791 441.022 709.4 441H714.67Z" stroke="#CCDDE2" stroke-width="5.42" stroke-miterlimit="10"/>
<path d="M735.19 429.33C732.442 430.202 729.94 431.715 727.892 433.744C725.844 435.773 724.308 438.26 723.41 441H709.41C707.811 441.022 706.267 440.419 705.107 439.318C703.947 438.218 703.263 436.708 703.2 435.11V435.04C703.206 432.809 704.033 430.659 705.524 428.999C707.014 427.339 709.063 426.286 711.28 426.04H711.34C711.525 424.363 712.146 422.763 713.14 421.4C716.14 417.17 722.37 415.4 728.14 419.53C729.332 420.413 730.259 421.607 730.819 422.98C731.38 424.354 731.553 425.855 731.32 427.32C731.315 427.343 731.315 427.367 731.32 427.39C732.792 427.582 734.155 428.266 735.19 429.33V429.33Z" stroke="#CCDDE2" stroke-width="5.42" stroke-miterlimit="10"/>
<path d="M766.43 412L739.43 458.72H735C728.36 458.72 722.57 453.51 722.5 446.84V446.71C722.516 442.846 723.752 439.085 726.033 435.965C728.314 432.846 731.522 430.527 735.2 429.34C736.365 428.937 737.573 428.672 738.8 428.55C738.86 428.55 738.89 428.55 738.89 428.49C739.263 425.415 740.334 422.467 742.021 419.869C743.708 417.272 745.966 415.094 748.623 413.503C751.281 411.912 754.266 410.95 757.353 410.689C760.439 410.429 763.544 410.877 766.43 412V412Z" stroke="#CCDDE2" stroke-width="5.42" stroke-miterlimit="10"/>
<path d="M774.48 398.75L744.68 450.39" stroke="#CCDDE2" stroke-width="5.42" stroke-miterlimit="10"/>
<path d="M823.08 753.44C804.08 738.25 752.92 714.96 729.08 707.26C685.68 693.26 628.61 694.86 594.62 660.26C550.18 615.1 584.62 526.82 579.21 471.05C576.68 444.91 568.55 422.05 554.8 403.5C550.635 397.864 545.948 392.634 540.8 387.88" stroke="#CCDDE2" stroke-width="5.42" stroke-miterlimit="10"/>
<path d="M394.68 343.49C289.27 348.49 248.94 435.06 248.94 435.06" stroke="#CCDDE2" stroke-width="5.42" stroke-miterlimit="10"/>
<path d="M133.16 792.75C133.16 792.75 182.83 696.62 270.55 707.63C270.55 707.63 191.89 666.63 215.26 581.23C215.51 580.11 215.58 553.49 232.31 553.49H368.37C368.37 553.49 364.53 549.43 354.13 570.91C354.13 570.91 335.65 595.2 332.57 609.5C329.49 623.8 349.57 622.89 349.57 622.89C349.57 622.89 401.17 659.6 406.45 655.26C411.73 650.92 426.35 616.26 430.9 599.46C435.45 582.66 436.59 563.9 443.82 565.03C451.05 566.16 462.32 570.13 458.44 559.3C454.56 548.47 441.21 491.18 425.44 479.96C409.67 468.74 359.44 394.17 357.89 390.55C356.34 386.93 327.21 394.92 327.21 394.92C327.21 394.92 194.57 439.57 151.03 559.22C107.49 678.87 128.65 780.13 133.16 792.75Z" fill="#2E2E2E"/>
<path d="M270.55 707.63C270.55 707.63 175.92 686.08 133.16 792.75C133.16 792.75 149.94 870.03 235.87 874.05C321.8 878.07 370.2 857 405.45 856.45C412.45 856.34 388.55 778.45 450.26 772.37C450.26 772.37 388.55 750.5 343.2 738.79C297.85 727.08 270.55 707.63 270.55 707.63Z" fill="#3FBDF1"/>
<path d="M554.85 397V466.65C554.867 473.429 552.865 480.06 549.098 485.697C545.331 491.334 539.971 495.721 533.7 498.3C517 505.11 495 512.74 458.48 514.05V464.36C468.38 468.36 479.81 465.8 487.77 458.64C489.47 457.12 491.13 455.64 492.69 454.34C498.8 449.06 503.75 445.66 506.25 446.6C511.42 448.52 512.07 448.52 515.25 431.74C517.6 419.66 537.13 406.31 541.83 384.11C542.792 379.509 543.059 374.79 542.62 370.11C542.077 364.349 540.702 358.697 538.54 353.33C535.413 345.3 531.069 337.799 525.66 331.09L535.79 341.47C536.73 342.47 537.63 343.42 538.47 344.47C550.91 358.87 554.85 377.56 554.85 397Z" fill="#3FBDF1"/>
<path d="M525.7 331.06L516.12 321.22L515.58 320.68C515.661 320.714 515.735 320.762 515.8 320.82C516.08 321.08 516.41 321.37 516.7 321.62C519.869 324.404 522.796 327.452 525.45 330.73C525.52 330.84 525.63 331 525.7 331.06Z" fill="#3FBDF1"/>
<path d="M522.56 326.1C522.641 326.137 522.715 326.188 522.78 326.25C526.296 329.251 529.53 332.568 532.44 336.16C532.51 336.26 532.62 336.37 532.69 336.48L522.56 326.1Z" fill="#3FBDF1"/>
<path d="M433.74 489.53C452.37 542.36 433.24 611.33 404.56 658.53" stroke="black" stroke-width="5.42" stroke-linecap="round" stroke-linejoin="round"/>
<path d="M357.94 390.55C308.94 391.23 259.68 424.4 224.24 454.63C174.8 496.76 147.86 552.63 134.37 615.41C128.345 644.051 124.812 673.159 123.81 702.41C113.81 961.78 342.64 850.14 417.61 856.61" stroke="black" stroke-width="5.42" stroke-linecap="round" stroke-linejoin="round"/>
<path d="M298.76 446.22C289.63 446.28 86.6499 660.45 334.87 736.37C570.38 808.37 552.16 822.44 564.71 835.28C577.87 848.73 610.23 821.68 549.48 784.2C488.73 746.72 414.77 637.52 310.06 609.6" stroke="black" stroke-width="5.42" stroke-linecap="round" stroke-linejoin="round"/>
<path d="M330.31 616.25C335.82 597.35 352.1 568.87 362.95 553.49" stroke="black" stroke-width="5.42" stroke-linecap="round" stroke-linejoin="round"/>
<path d="M558.16 825.88L564 834.28C568.006 839.96 571.15 846.2 573.33 852.8C599.26 933.4 482.26 935.43 482.26 935.43H81.2599C73.4999 935.43 61.4499 937.53 54.8099 934.37C49.2899 931.74 48.8099 925.37 51.8099 920.68C58.2199 910.68 73.0599 909.27 82.8099 904.03C94.3199 897.8 105.67 889.03 108.69 875.6C120.83 821.72 160.55 841.28 160.55 841.28" stroke="black" stroke-width="5.42" stroke-linecap="round" stroke-linejoin="round"/>
<path d="M433.74 490.29C439.63 483.67 448.06 474.16 457.21 463.78C479.66 438.43 506.71 407.78 512.36 400.78C524 386.31 538.25 383.92 541.83 384.14" stroke="black" stroke-width="5.42" stroke-linecap="round" stroke-linejoin="round"/>
<path d="M457.21 463.78C457.607 463.999 458.018 464.193 458.44 464.36C468.34 468.36 479.77 465.8 487.73 458.64C496.08 451.12 503.06 445.41 506.21 446.64C511.38 448.56 512.03 448.56 515.21 431.78C517.56 419.7 537.09 406.35 541.79 384.15C543.63 375.4 543.2 365.27 538.5 353.34C535.373 345.31 531.029 337.809 525.62 331.1C525.55 330.99 525.44 330.88 525.37 330.77C522.458 327.18 519.224 323.863 515.71 320.86C515.65 320.8 515.579 320.752 515.5 320.72C490.83 299.78 453.8 296.02 416.99 323.65C416.34 324.15 415.69 324.7 415.07 325.24L365.24 369.79C360.866 373.695 358.148 379.123 357.642 384.965C357.137 390.807 358.882 396.621 362.52 401.22L433.66 490.33L435.79 496.33L460.85 566.2H438.66" stroke="black" stroke-width="5.42" stroke-linecap="round" stroke-linejoin="round"/>
<path d="M509.41 404.94C509.41 404.94 514.41 404.2 519.36 408.72" stroke="black" stroke-width="5.42" stroke-linecap="round" stroke-linejoin="round"/>
<path d="M508.664 416.751C510.609 414.483 511.034 411.656 509.614 410.437C508.193 409.218 505.464 410.068 503.518 412.336C501.572 414.603 501.147 417.43 502.568 418.649C503.989 419.868 506.718 419.018 508.664 416.751Z" fill="black"/>
<path d="M515.58 320.68L525.7 331.06L535.83 341.44C550.33 356.3 554.83 376.23 554.83 397.02V475.42C554.847 482.2 552.845 488.831 549.078 494.468C545.311 500.105 539.951 504.492 533.68 507.07C517 513.87 495 521.5 458.48 522.8V464.36" stroke="black" stroke-width="5.42" stroke-linecap="round" stroke-linejoin="round"/>
<path d="M658.44 791.28C662.251 791.28 665.34 788.191 665.34 784.38C665.34 780.569 662.251 777.48 658.44 777.48C654.629 777.48 651.54 780.569 651.54 784.38C651.54 788.191 654.629 791.28 658.44 791.28Z" fill="#3FBDF1"/>
<path d="M832.17 867.91C826.01 895.63 848.55 901.79 848.55 901.79V919.65H846.55C844.369 919.653 842.279 920.521 840.737 922.064C839.196 923.607 838.33 925.699 838.33 927.88V927.88C838.33 928.983 838.551 930.075 838.981 931.091C839.411 932.107 840.04 933.026 840.832 933.793C841.624 934.561 842.562 935.162 843.591 935.56C844.62 935.958 845.718 936.145 846.82 936.11C866.51 935.56 919.16 923.56 903.63 829.71C892.63 763.23 832.48 768.71 804.06 795.44C779.4 818.63 814.59 856.3 839.78 833.69C843.169 830.614 846.337 827.302 849.26 823.78" stroke="black" stroke-width="5.42" stroke-linecap="round" stroke-linejoin="round"/>
<path d="M828.849 902.36V919.65H826.849C825.765 919.646 824.691 919.857 823.689 920.27C822.687 920.683 821.777 921.291 821.011 922.058C820.244 922.825 819.638 923.736 819.226 924.739C818.814 925.742 818.604 926.816 818.609 927.9C818.609 929.002 818.83 930.094 819.261 931.109C819.692 932.124 820.323 933.041 821.116 933.807C821.91 934.572 822.849 935.17 823.879 935.564C824.909 935.958 826.008 936.14 827.109 936.1C831.841 935.965 836.541 935.27 841.109 934.03" stroke="black" stroke-width="5.42" stroke-linecap="round" stroke-linejoin="round"/>
<path d="M721.37 934.46C717.38 935.437 713.297 935.984 709.19 936.09C708.091 936.13 706.995 935.948 705.969 935.554C704.942 935.161 704.005 934.563 703.215 933.798C702.424 933.033 701.797 932.116 701.37 931.103C700.943 930.089 700.726 929 700.73 927.9C700.737 925.716 701.603 923.622 703.14 922.07C703.895 921.295 704.799 920.68 705.797 920.265C706.796 919.849 707.869 919.639 708.95 919.65H710.95V901.8C710.95 901.8 693.5 901.07 693.04 867.89L692.94 818.63" stroke="black" stroke-width="5.42" stroke-linecap="round" stroke-linejoin="round"/>
<path d="M780.94 818.62H796.24" stroke="black" stroke-width="5.42" stroke-linecap="round" stroke-linejoin="round"/>
<path d="M711.83 867.91C705.65 895.63 728.2 894.41 728.2 894.41V919.65H726.2C724.94 919.646 723.695 919.932 722.562 920.485C721.429 921.038 720.439 921.843 719.666 922.839C718.893 923.835 718.359 924.994 718.105 926.229C717.851 927.464 717.883 928.74 718.2 929.96C718.735 931.816 719.886 933.435 721.464 934.549C723.042 935.663 724.952 936.207 726.88 936.09C739.36 935.63 761.93 930.91 774.79 904.35C783.18 910.23 785.32 913.67 796.37 913.67C804.175 913.683 811.882 911.938 818.921 908.566C825.96 905.194 832.149 900.28 837.03 894.19" stroke="black" stroke-width="5.42" stroke-linecap="round" stroke-linejoin="round"/>
<path d="M710.77 818.63H681.39C676.169 818.625 671.165 816.547 667.476 812.852C663.788 809.158 661.717 804.15 661.72 798.93V793.81C661.719 792.702 661.799 791.596 661.96 790.5" stroke="black" stroke-width="5.42" stroke-linecap="round" stroke-linejoin="round"/>
<path d="M665 781.41C666.097 779.489 667.442 777.72 669 776.15C671.315 773.831 674.064 771.993 677.092 770.74C680.119 769.487 683.364 768.845 686.64 768.85C686.639 764.864 687.423 760.917 688.949 757.235C690.475 753.552 692.711 750.207 695.531 747.39C698.351 744.573 701.699 742.339 705.382 740.817C709.066 739.295 713.014 738.515 717 738.52H726.44C740.901 738.523 754.768 744.269 764.992 754.495C775.216 764.721 780.96 778.589 780.96 793.05V826.93C780.96 834.365 778.006 841.496 772.749 846.754C767.491 852.011 760.36 854.965 752.925 854.965C745.49 854.965 738.359 852.011 733.101 846.754C727.844 841.496 724.89 834.365 724.89 826.93V783.5" stroke="black" stroke-width="5.42" stroke-linecap="round" stroke-linejoin="round"/>
<path d="M662 790.5C661.015 791.022 659.915 791.29 658.8 791.28C657.566 791.278 656.356 790.945 655.295 790.316C654.233 789.687 653.36 788.785 652.766 787.704C652.171 786.623 651.878 785.402 651.915 784.169C651.953 782.936 652.321 781.736 652.98 780.693C653.639 779.65 654.566 778.803 655.664 778.24C656.762 777.677 657.99 777.419 659.222 777.492C660.453 777.565 661.643 777.967 662.666 778.657C663.689 779.346 664.509 780.296 665.04 781.41" stroke="black" stroke-width="5.42" stroke-linecap="round" stroke-linejoin="round"/>
<path d="M707.75 774.05C707.75 774.05 705.34 767.3 695.22 768.75" stroke="black" stroke-width="5.42" stroke-linecap="round" stroke-linejoin="round"/>
<path d="M492.67 454.33C492.67 454.33 484.55 457.06 482.14 446.22" stroke="black" stroke-width="5.42" stroke-linecap="round" stroke-linejoin="round"/>
<path d="M458.58 699.71L445.25 566.16" stroke="black" stroke-width="5.42" stroke-linecap="round" stroke-linejoin="round"/>
<path d="M226.39 553.49H371.77C373.987 553.49 376.114 552.609 377.682 551.041C379.249 549.474 380.13 547.347 380.13 545.13V521" stroke="black" stroke-width="5.42" stroke-linecap="round" stroke-linejoin="round"/>
<path d="M65.6899 936.11H926.65" stroke="black" stroke-width="5.42" stroke-linecap="round" stroke-linejoin="round"/>
</svg>
